#!OML:ASF H:\IndianDance\Patient Classification 1\Patient 1\Session 1\dancer.ASF
:FULLY-SPECIFIED
:DEGREES
4284
root 33.4761 15.1956 5.15358 1274.73 -231.461 -175.324
lowerback -0.597163 5.04884 4.43053
upperback -8.66113 7.12154 -0.713354
thorax -8.16029 3.25163 -3.64124
lowerneck -14.7173 9.47053 9.16461
upperneck 20.7564 12.546 -5.7938
head 9.98011 6.00679 -1.79436
rclavicle -5.14852e-014 -2.38542e-015
rhumerus 8.26136 43.7772 -12.6055
rradius 101.307
rwrist -17.471
rhand -29.3444 1.94347
rfingers 7.12502
rthumb -2.68428 -28.0194
lclavicle -5.14852e-014 -2.38542e-015
lhumerus 26.6383 -38.6549 4.72587
lradius 101.844
lwrist 50.3384
lhand -16.7318 44.5283
lfingers 7.12502
lthumb 9.49415 -285.706
rfemur -17.7361 -16.4846 26.9318
rtibia 49.21
rfoot -22.8573 -29.808
rtoes 3.92984
lfemur -33.8866 10.6606 -28.145
ltibia 44.1858
lfoot -11.8244 5.91743
ltoes 0.405384
4285
root 33.4423 15.1756 5.21577 1275.09 -234.262 -174.568
lowerback -0.475606 5.09695 4.1363
upperback -8.56468 7.17817 -0.759337
thorax -8.14616 3.30186 -3.53892
lowerneck -14.7049 9.60821 9.24202
upperneck 20.8202 12.6967 -5.63704
head 10.0072 6.10163 -1.72781
rclavicle 4.68138e-014 1.11319e-014
rhumerus 7.21023 44.0523 -13.2299
rradius 101.994
rwrist -16.8151
rhand -29.0204 4.45219
rfingers 7.12502
rthumb -2.3714 -25.5144
lclavicle 4.68138e-014 1.11319e-014
lhumerus 26.8873 -39.4259 4.45574
lradius 102.796
lwrist 47.9237
lhand -18.04 41.6486
lfingers 7.12502
lthumb 8.23175 -288.532
rfemur -18.6193 -17.3335 26.9054
rtibia 51.7373
rfoot -20.5752 -29.3007
rtoes 4.02398
lfemur -33.364 9.57838 -27.9183
ltibia 43.7745
lfoot -12.0355 4.30116
ltoes -0.0241765
4286
root 33.4079 15.1533 5.27915 1275.6 -237.03 -173.644
lowerback -0.323253 5.14068 3.80722
upperback -8.45603 7.22587 -0.818139
thorax -8.14036 3.34858 -3.43337
lowerneck -14.6593 9.75923 9.34665
upperneck 20.8367 12.8611 -5.49188
head 10.0151 6.20457 -1.66931
rclavicle -5.25785e-014 -7.95139e-015
rhumerus 6.15821 44.2646 -13.923
rradius 102.618
rwrist -16.3189
rhand -28.6057 6.86005
rfingers 7.12502
rthumb -1.97094 -23.1106
lclavicle -5.25785e-014 -7.95139e-015
lhumerus 27.1734 -40.1763 4.11886
lradius 103.692
lwrist 45.2608
lhand -19.2681 38.6215
lfingers 7.12502
lthumb 7.04631 -291.516
rfemur -19.5651 -18.0295 26.7714
rtibia 54.3815
rfoot -17.9747 -28.4801
rtoes 4.469
lfemur -32.8474 8.42224 -27.7
ltibia 43.3813
lfoot -12.275 2.64485
ltoes -0.465696
4287
root 33.3718 15.1287 5.34384 1276.28 -239.755 -172.54
lowerback -0.132759 5.18706 3.45299
upperback -8.34312 7.27525 -0.885617
thorax -8.1547 3.39609 -3.32748
lowerneck -14.5523 9.92091 9.45729
upperneck 20.7908 13.0384 -5.34099
head 9.99039 6.31623 -1.61168
rclavicle -4.83047e-014 -4.05521e-014
rhumerus 5.08886 44.4012 -14.6826
rradius 103.191
rwrist -15.9356
rhand -28.0449 9.08583
rfingers 7.12502
rthumb -1.42926 -20.8891
lclavicle -4.83047e-014 -4.05521e-014
lhumerus 27.4905 -40.9048 3.73601
lradius 104.53
lwrist 42.3978
lhand -20.4336 35.5437
lfingers 7.12502
lthumb 5.92123 -294.559
rfemur -20.5507 -18.5448 26.5474
rtibia 57.079
rfoot -15.2002 -27.2007
rtoes 5.25869
lfemur -32.372 7.23838 -27.5007
ltibia 43.0296
lfoot -12.5264 0.998523
ltoes -0.763396
4288
root 33.3346 15.103 5.41032 1277.16 -242.426 -171.243
lowerback 0.0769378 5.24149 3.09307
upperback -8.22758 7.33359 -0.958844
thorax -8.17773 3.44731 -3.22723
lowerneck -14.4193 10.0913 9.60565
upperneck 20.7307 13.2288 -5.22111
head 9.96204 6.43407 -1.56988
rclavicle 1.0307e-013 4.37326e-014
rhumerus 3.98447 44.4457 -15.5206
rradius 103.718
rwrist -15.6342
rhand -27.2972 11.0729
rfingers 7.12502
rthumb -0.707094 -18.9057
lclavicle 1.0307e-013 4.37326e-014
lhumerus 27.8361 -41.6036 3.32114
lradius 105.311
lwrist 39.4324
lhand -21.5313 32.4879
lfingers 7.12502
lthumb 4.86138 -297.588
rfemur -21.5461 -18.891 26.2417
rtibia 59.7578
rfoot -12.3558 -25.383
rtoes 6.0484
lfemur -31.9565 6.05973 -27.3244
ltibia 42.7365
lfoot -12.7652 -0.603135
ltoes -0.848031
4289
root 33.2969 15.0769 5.47883 1278.28 -245.048 -169.698
lowerback 0.309727 5.30624 2.73211
upperback -8.11112 7.40401 -1.04012
thorax -8.2127 3.50327 -3.13845
lowerneck -14.2785 10.262 9.77618
upperneck 20.674 13.4202 -5.11659
head 9.93655 6.55248 -1.5369
rclavicle 7.17613e-014 -5.56597e-015
rhumerus 2.81962 44.3886 -16.4515
rradius 104.198
rwrist -15.43
rhand -26.3504 12.7876
rfingers 7.12502
rthumb 0.2073 -17.1921
lclavicle 7.17613e-014 -5.56597e-015
lhumerus 28.219 -42.2737 2.88688
lradius 106.045
lwrist 36.4755
lhand -22.5577 29.5122
lfingers 7.12502
lthumb 3.87027 -300.543
rfemur -22.5114 -19.0761 25.8516
rtibia 62.3501
rfoot -9.73914 -22.9302
rtoes 6.63877
lfemur -31.6005 4.89818 -27.1771
ltibia 42.5166
lfoot -12.9727 -2.14959
ltoes -0.665262
4290
root 33.2585 15.0519 5.54969 1279.73 -247.627 -167.844
lowerback 0.56962 5.37385 2.38147
upperback -8.00844 7.47848 -1.12044
thorax -8.27859 3.55918 -3.05936
lowerneck -14.0811 10.4325 9.94558
upperneck 20.6189 13.6204 -5.01288
head 9.90203 6.67669 -1.5056
rclavicle -2.69353e-014 8.74653e-015
rhumerus 1.5981 44.262 -17.4709
rradius 104.635
rwrist -15.3605
rhand -25.2216 14.2106
rfingers 7.12502
rthumb 1.29755 -15.7652
lclavicle -2.69353e-014 8.74653e-015
lhumerus 28.5831 -42.9422 2.48107
lradius 106.747
lwrist 33.6276
lhand -23.4861 26.6322
lfingers 7.12502
lthumb 2.97369 -303.409
rfemur -23.4217 -19.1197 25.3875
rtibia 64.7884
rfoot -7.56026 -19.8447
rtoes 6.70376
lfemur -31.3082 3.74852 -27.0453
ltibia 42.3718
lfoot -13.1139 -3.65192
ltoes -0.13838
4291
root 33.2193 15.0279 5.6229 1281.55 -250.167 -165.624
lowerback 0.8466 5.44702 2.06194
upperback -7.90734 7.5607 -1.19592
thorax -8.35383 3.61629 -2.99534
lowerneck -13.8703 10.5982 10.1006
upperneck 20.5688 13.8206 -4.90781
head 9.86577 6.80041 -1.47259
rclavicle -5.18828e-014 -2.14687e-014
rhumerus 0.300226 44.0414 -18.5782
rradius 105.038
rwrist -15.4744
rhand -23.9483 15.3461
rfingers 7.12502
rthumb 2.52729 -14.6186
lclavicle -5.18828e-014 -2.14687e-014
lhumerus 28.9328 -43.5816 2.12149
lradius 107.42
lwrist 30.9685
lhand -24.2937 23.8127
lfingers 7.12502
lthumb 2.19376 -306.219
rfemur -24.2616 -19.0157 24.8759
rtibia 67.02
rfoot -6.11732 -16.2318
rtoes 6.3041
lfemur -31.0879 2.60747 -26.902
ltibia 42.3018
lfoot -13.1751 -5.12483
ltoes 0.613728
4292
root 33.1793 15.0057 5.69876 1283.89 -252.668 -162.908
lowerback 1.1451 5.52299 1.77812
upperback -7.80964 7.64777 -1.26187
thorax -8.44313 3.6729 -2.94467
lowerneck -13.7079 10.76 10.2296
upperneck 20.58 14.0194 -4.78686
head 9.85685 6.92207 -1.42701
rclavicle -6.2816e-014 -6.36111e-015
rhumerus -1.05469 43.7374 -19.7568
rradius 105.403
rwrist -15.837
rhand -22.5923 16.2087
rfingers 7.12502
rthumb 3.83681 -13.7365
lclavicle -6.2816e-014 -6.36111e-015
lhumerus 29.246 -44.2021 1.83237
lradius 108.072
lwrist 28.5425
lhand -24.9695 21.0213
lfingers 7.12502
lthumb 1.54103 -309.004
rfemur -25.022 -18.7588 24.3424
rtibia 69.0037
rfoot -5.46543 -12.3638
rtoes 5.49627
lfemur -30.9323 1.47101 -26.7301
ltibia 42.2965
lfoot -13.1502 -6.57667
ltoes 1.40729
4293
root 33.1389 14.9855 5.77751 1286.95 -255.148 -159.484
lowerback 1.45441 5.59689 1.54786
upperback -7.70909 7.73418 -1.31165
thorax -8.53208 3.72575 -2.9079
lowerneck -13.5636 10.9169 10.3729
upperneck 20.6122 14.2192 -4.70615
head 9.86318 7.04072 -1.39551
rclavicle -7.79236e-014 -2.38542e-015
rhumerus -2.48628 43.355 -20.9981
rradius 105.74
rwrist -16.4734
rhand -21.2142 16.8121
rfingers 7.12502
rthumb 5.1675 -13.1049
lclavicle -7.79236e-014 -2.38542e-015
lhumerus 29.5143 -44.8006 1.63289
lradius 108.708
lwrist 26.3706
lhand -25.5086 18.198
lfingers 7.12502
lthumb 1.0204 -311.825
rfemur -25.6893 -18.3634 23.8149
rtibia 70.7129
rfoot -5.57017 -8.50774
rtoes 4.55164
lfemur -30.8369 0.328201 -26.5041
ltibia 42.3444
lfoot -13.0421 -8.04845
ltoes 2.29053
4294
root 33.0981 14.9668 5.85887 1291.16 -257.595 -154.94
lowerback 1.77004 5.66754 1.37975
upperback -7.61162 7.81962 -1.34604
thorax -8.62303 3.7741 -2.89031
lowerneck -13.424 11.0657 10.5099
upperneck 20.6608 14.4148 -4.63784
head 9.87649 7.15585 -1.36727
rclavicle -8.29926e-014 -2.8625e-014
rhumerus -4.00286 42.9116 -22.2965
rradius 106.053
rwrist -17.3969
rhand -19.8909 17.162
rfingers 7.12502
rthumb 6.44517 -12.7199
lclavicle -8.29926e-014 -2.8625e-014
lhumerus 29.7422 -45.3981 1.5178
lradius 109.331
lwrist 24.4471
lhand -25.9622 15.3408
lfingers 7.12502
lthumb 0.58222 -314.68
rfemur -26.2688 -17.8355 23.3073
rtibia 72.1399
rfoot -6.26959 -4.938
rtoes 3.5476
lfemur -30.8036 -0.821597 -26.2195
ltibia 42.4288
lfoot -12.8427 -9.54818
ltoes 3.16652
4295
root 33.0571 14.9499 5.94361 1297.23 -259.968 -148.545
lowerback 2.07556 5.74049 1.26707
upperback -7.51845 7.91201 -1.36054
thorax -8.70852 3.82284 -2.88228
lowerneck -13.2659 11.2086 10.6473
upperneck 20.6975 14.6109 -4.59356
head 9.88431 7.26954 -1.34835
rclavicle -5.22804e-014 -1.66979e-014
rhumerus -5.60295 42.4139 -23.6312
rradius 106.341
rwrist -18.6008
rhand -18.6805 17.2646
rfingers 7.12502
rthumb 7.61355 -12.5784
lclavicle -5.22804e-014 -1.66979e-014
lhumerus 29.9272 -46.0089 1.49013
lradius 109.938
lwrist 22.73
lhand -26.3855 12.4428
lfingers 7.12502
lthumb 0.173459 -317.578
rfemur -26.7724 -17.1638 22.8456
rtibia 73.2861
rfoot -7.32428 -1.90557
rtoes 2.64876
lfemur -30.8345 -1.96376 -25.8656
ltibia 42.5343
lfoot -12.5412 -11.0953
ltoes 4.22029
4296
root 33.0166 14.935 6.03168 1306.74 -262.208 -138.745
lowerback 2.36205 5.81071 1.21935
upperback -7.42515 8.00563 -1.35185
thorax -8.77766 3.86894 -2.88342
lowerneck -13.1163 11.3529 10.7954
upperneck 20.733 14.8132 -4.57549
head 9.89706 7.38403 -1.33824
rclavicle -7.86193e-014 -2.26615e-014
rhumerus -7.27805 41.8575 -24.9838
rradius 106.609
rwrist -20.0666
rhand -17.6069 17.1347
rfingers 7.12502
rthumb 8.64967 -12.6681
lclavicle -7.86193e-014 -2.26615e-014
lhumerus 30.0912 -46.6328 1.52934
lradius 110.519
lwrist 21.1933
lhand -26.862 9.5188
lfingers 7.12502
lthumb -0.286818 -320.502
rfemur -27.2016 -16.3696 22.443
rtibia 74.1604
rfoot -8.46792 0.429713
rtoes 2.0381
lfemur -30.9186 -3.0961 -25.4367
ltibia 42.6447
lfoot -12.1421 -12.6673
ltoes 5.34135
4297
root 32.9769 14.9219 6.12307 1322.99 -264.12 -122.212
lowerback 2.62217 5.87623 1.2256
upperback -7.33458 8.09756 -1.32447
thorax -8.82997 3.91169 -2.8914
lowerneck -12.9232 11.4992 10.968
upperneck 20.7299 15.0241 -4.58956
head 9.89391 7.50222 -1.34441
rclavicle 5.63555e-014 1.94809e-014
rhumerus -9.01206 41.2478 -26.3413
rradius 106.851
rwrist -21.795
rhand -16.6826 16.7742
rfingers 7.12502
rthumb 9.54162 -12.9897
lclavicle 5.63555e-014 1.94809e-014
lhumerus 30.2386 -47.2942 1.61557
lradius 111.083
lwrist 19.7764
lhand -27.5038 6.67322
lfingers 7.12502
lthumb -0.906662 -323.349
rfemur -27.5592 -15.4753 22.0939
rtibia 74.7835
rfoot -9.54977 2.01238
rtoes 1.45645
lfemur -31.0503 -4.22062 -24.9456
ltibia 42.7426
lfoot -11.599 -14.2722
ltoes 6.73968
4298
root 32.9384 14.9115 6.21766 1350.34 -265.237 -94.5945
lowerback 2.85049 5.93415 1.28007
upperback -7.24693 8.18392 -1.27812
thorax -8.86328 3.94979 -2.90163
lowerneck -12.6979 11.6467 11.1624
upperneck 20.7007 15.2409 -4.62544
head 9.8803 7.62348 -1.36255
rclavicle -2.13694e-014 -1.15295e-014
rhumerus -10.8002 40.5778 -27.6922
rradius 107.064
rwrist -23.7433
rhand -15.8983 16.1853
rfingers 7.12502
rthumb 10.2983 -13.5425
lclavicle -2.13694e-014 -1.15295e-014
lhumerus 30.39 -47.9951 1.73035
lradius 111.618
lwrist 18.4518
lhand -28.3564 3.9387
lfingers 7.12502
lthumb -1.73014 -326.089
rfemur -27.8362 -14.503 21.7887
rtibia 75.1671
rfoot -10.4533 2.86007
rtoes 1.061
lfemur -31.2141 -5.33824 -24.3988
ltibia 42.8039
lfoot -10.8919 -15.8951
ltoes 8.4554
